<svg xmlns="http://www.w3.org/2000/svg" viewBox="0 0 40 40">
	<rect style="fill:#127eba" width="40" height="40"/>
	<path style="fill:#fff;stroke-width:0.25"
		d="M 10,33.625 V 33 H 11.5 13 V 21.026747 9.0534945 L 12.621248,8.9081538 12.242496,8.7628128 12.002436,8.1314065 11.762375,7.5 11.997345,6.8819822 12.232315,6.2639645 12.866158,6.1048802 13.5,5.945796 14.100019,6.096391 14.700037,6.246986 14.940678,6.9372885 15.181318,7.627591 14.971665,8.194337 14.762012,8.7610828 14.381006,8.9072887 14,9.0534945 V 9.5267473 10 h 8.5 8.5 v 0.432803 0.432803 L 28.692437,13.182803 26.384875,15.5 28.692437,17.817197 31,20.134394 v 0.406056 0.406055 L 30.604552,21.098253 30.209107,21.25 H 22.104553 14 V 27.125 33 h 1.5 1.5 v 0.625 0.625 H 13.5 10 Z M 27.05698,17.932278 25,15.864556 V 15.500309 15.136062 L 26.931635,13.193031 28.86327,11.25 H 21.431635 14 V 15.625 20 h 7.556981 7.556979 z"/>
</svg>
